<?xml version="1.0" encoding="UTF-8" standalone="no"?>
<!-- Created with Inkscape (http://www.inkscape.org/) -->

<svg
   xmlns:dc="http://purl.org/dc/elements/1.1/"
   xmlns:cc="http://creativecommons.org/ns#"
   xmlns:rdf="http://www.w3.org/1999/02/22-rdf-syntax-ns#"
   xmlns:svg="http://www.w3.org/2000/svg"
   xmlns="http://www.w3.org/2000/svg"
   xmlns:sodipodi="http://sodipodi.sourceforge.net/DTD/sodipodi-0.dtd"
   xmlns:inkscape="http://www.inkscape.org/namespaces/inkscape"
   width="1000"
   height="1000"
   id="svg4929"
   version="1.1"
   inkscape:version="0.91 r13725"
   viewBox="0 0 1000 1000"
   sodipodi:docname="icon.svg"
   inkscape:export-filename="/Users/geoffrey/Desktop/logo-256.png"
   inkscape:export-xdpi="23.040001"
   inkscape:export-ydpi="23.040001">
  <defs
     id="defs5498" />
  <sodipodi:namedview
     inkscape:window-height="699"
     inkscape:window-width="1280"
     inkscape:pageshadow="2"
     inkscape:pageopacity="0.0"
     borderopacity="1.0"
     bordercolor="#666666"
     pagecolor="#ffffff"
     id="base"
     showgrid="false"
     showguides="true"
     inkscape:guide-bbox="true"
     inkscape:zoom="0.454"
     inkscape:cx="263.29143"
     inkscape:cy="515.66158"
     inkscape:window-x="0"
     inkscape:window-y="1"
     inkscape:current-layer="flowRoot5476"
     inkscape:window-maximized="1">
    <sodipodi:guide
       orientation="horizontal"
       position="200"
       id="guide5596" />
    <sodipodi:guide
       position="718.61234,748.89868"
       orientation="0,1"
       id="guide5507" />
    <sodipodi:guide
       position="435.02203,853.52423"
       orientation="1,0"
       id="guide5509" />
    <sodipodi:guide
       position="718.61234,748.89868"
       orientation="1,0"
       id="guide5511" />
  </sodipodi:namedview>
  <metadata
     id="metadata5594">
    <rdf:RDF>
      <cc:Work
         rdf:about="">
        <dc:format>image/svg+xml</dc:format>
        <dc:type
           rdf:resource="http://purl.org/dc/dcmitype/StillImage" />
        <dc:title></dc:title>
      </cc:Work>
    </rdf:RDF>
  </metadata>
  <g
     inkscape:label="Layer 1"
     inkscape:groupmode="layer"
     id="layer1">
    <g
       transform="translate(-91.94401,61.518096)"
       style="font-style:italic;font-variant:normal;font-weight:normal;font-stretch:normal;font-size:625px;line-height:125%;font-family:Zapfino;-inkscape-font-specification:'Zapfino Italic';letter-spacing:0px;word-spacing:0px;fill:#000000;fill-opacity:1;stroke:none;stroke-width:1px;stroke-linecap:butt;stroke-linejoin:miter;stroke-opacity:1"
       id="flowRoot5476">
      <g
         id="g5550"
         transform="matrix(1.4051,0,0,1.4051,-239.79652,-170.66541)">
        <path
           inkscape:connector-curvature="0"
           style="fill:#000000;fill-opacity:1"
           d="m 575.79789,167.42312 q 0,23.6048 -23.77149,47.20961 -21.61044,23.6048 -49.70402,23.6048 -25.93253,0 -25.93253,-23.6048 0,-25.57187 19.4494,-49.17668 21.61044,-23.6048 51.86506,-23.6048 28.09358,0 28.09358,25.57187 z"
           id="path5542" />
        <path
           id="path5520"
           d="m 562.58203,172.07565 q 0,18.75 -17.1875,37.5 -15.625,18.75 -35.9375,18.75 -18.75,0 -18.75,-18.75 0,-20.3125 14.0625,-39.0625 15.625,-18.75 37.5,-18.75 20.3125,0 20.3125,20.3125 z"
           style="fill:#00ff00;fill-opacity:1"
           inkscape:connector-curvature="0" />
        <path
           id="path5514"
           d="m 632.89453,520.51315 q -37.5,48.4375 -85.9375,92.1875 -48.4375,43.75 -89.0625,70.3125 -31.25,20.3125 -64.0625,31.25 -32.8125,10.9375 -59.375,10.9375 -9.375,0 -21.875,-1.5625 -12.5,-1.5625 -23.4375,-7.8125 -9.375,-6.25 -17.1875,-15.625 -6.25,-10.9375 -6.25,-28.125 0,-20.3125 15.625,-54.6875 15.625,-35.9375 35.9375,-73.4375 21.875,-37.5 42.1875,-71.875 21.875,-34.375 34.375,-51.5625 7.8125,-12.5 26.5625,-20.3125 20.3125,-9.375 26.5625,-9.375 7.8125,0 7.8125,4.6875 0,3.125 -3.125,9.375 -1.5625,6.25 -4.6875,9.375 -20.3125,31.25 -42.1875,68.75 -20.3125,37.5 -37.5,73.4375 -17.1875,34.375 -28.125,64.0625 -9.375,29.6875 -9.375,46.875 0,18.75 9.375,28.125 10.9375,7.8125 28.125,7.8125 31.25,0 68.75,-20.3125 37.5,-21.875 73.4375,-51.5625 37.5,-29.6875 68.75,-62.5 31.25,-32.8125 48.4375,-56.25 7.8125,-7.8125 7.8125,-3.125 1.5625,3.125 -1.5625,10.9375 z"
           inkscape:connector-curvature="0" />
        <path
           id="path5544"
           d="m 859.93886,167.42312 q 0,23.6048 -23.77149,47.20961 -21.61044,23.6048 -49.70402,23.6048 -25.93253,0 -25.93253,-23.6048 0,-25.57187 19.4494,-49.17668 21.61044,-23.6048 51.86506,-23.6048 28.09358,0 28.09358,25.57187 z"
           style="fill:#000000;fill-opacity:1"
           inkscape:connector-curvature="0" />
        <path
           id="path5548"
           d="m 845.78516,172.07565 q 0,18.75 -17.1875,37.5 -15.625,18.75 -35.9375,18.75 -18.75,0 -18.75,-18.75 0,-20.3125 14.0625,-39.0625 15.625,-18.75 37.5,-18.75 20.3125,0 20.3125,20.3125 z"
           style="fill:#ff0000;fill-opacity:1"
           inkscape:connector-curvature="0" />
        <path
           id="path5516"
           d="m 916.09766,520.51315 q -37.5,48.4375 -85.9375,92.1875 -48.4375,43.75 -89.0625,70.3125 -31.25,20.3125 -64.0625,31.25 -32.8125,10.9375 -59.375,10.9375 -9.375,0 -21.875,-1.5625 -12.5,-1.5625 -23.4375,-7.8125 -9.375,-6.25 -17.1875,-15.625 -6.25,-10.9375 -6.25,-28.125 0,-20.3125 15.625,-54.6875 15.625,-35.9375 35.9375,-73.4375 21.875,-37.5 42.1875,-71.875 21.875,-34.375 34.375,-51.5625 7.8125,-12.5 26.5625,-20.3125 20.3125,-9.375 26.5625,-9.375 7.8125,0 7.8125,4.6875 0,3.125 -3.125,9.375 -1.5625,6.25 -4.6875,9.375 -20.3125,31.25 -42.1875,68.75 -20.3125,37.5 -37.5,73.4375 -17.1875,34.375 -28.125,64.0625 -9.375,29.6875 -9.375,46.875 0,18.75 9.375,28.125 10.9375,7.8125 28.125,7.8125 31.25,0 68.75,-20.3125 37.5,-21.875 73.4375,-51.5625 37.5,-29.6875 68.75,-62.5 31.25,-32.8125 48.4375,-56.25 7.8125,-7.8125 7.8125,-3.125 1.5625,3.125 -1.5625,10.9375 z"
           inkscape:connector-curvature="0" />
      </g>
    </g>
  </g>
</svg>
